<svg id="visual" viewBox="0 0 960 540" width="960" height="540" xmlns="http://www.w3.org/2000/svg" xmlns:xlink="http://www.w3.org/1999/xlink" version="1.1"><rect x="0" y="0" width="960" height="540" fill="#FFFFFF"></rect><defs><linearGradient id="grad1_0" x1="43.8%" y1="0%" x2="100%" y2="100%"><stop offset="14.444444444444446%" stop-color="#6600ff" stop-opacity="1"></stop><stop offset="85.55555555555554%" stop-color="#6600ff" stop-opacity="1"></stop></linearGradient></defs><defs><linearGradient id="grad1_1" x1="43.8%" y1="0%" x2="100%" y2="100%"><stop offset="14.444444444444446%" stop-color="#6600ff" stop-opacity="1"></stop><stop offset="85.55555555555554%" stop-color="#883dff" stop-opacity="1"></stop></linearGradient></defs><defs><linearGradient id="grad1_2" x1="43.8%" y1="0%" x2="100%" y2="100%"><stop offset="14.444444444444446%" stop-color="#a261ff" stop-opacity="1"></stop><stop offset="85.55555555555554%" stop-color="#883dff" stop-opacity="1"></stop></linearGradient></defs><defs><linearGradient id="grad1_3" x1="43.8%" y1="0%" x2="100%" y2="100%"><stop offset="14.444444444444446%" stop-color="#a261ff" stop-opacity="1"></stop><stop offset="85.55555555555554%" stop-color="#b981ff" stop-opacity="1"></stop></linearGradient></defs><defs><linearGradient id="grad1_4" x1="43.8%" y1="0%" x2="100%" y2="100%"><stop offset="14.444444444444446%" stop-color="#cda1ff" stop-opacity="1"></stop><stop offset="85.55555555555554%" stop-color="#b981ff" stop-opacity="1"></stop></linearGradient></defs><defs><linearGradient id="grad1_5" x1="43.8%" y1="0%" x2="100%" y2="100%"><stop offset="14.444444444444446%" stop-color="#cda1ff" stop-opacity="1"></stop><stop offset="85.55555555555554%" stop-color="#dfc0ff" stop-opacity="1"></stop></linearGradient></defs><defs><linearGradient id="grad1_6" x1="43.8%" y1="0%" x2="100%" y2="100%"><stop offset="14.444444444444446%" stop-color="#f0dfff" stop-opacity="1"></stop><stop offset="85.55555555555554%" stop-color="#dfc0ff" stop-opacity="1"></stop></linearGradient></defs><defs><linearGradient id="grad1_7" x1="43.8%" y1="0%" x2="100%" y2="100%"><stop offset="14.444444444444446%" stop-color="#f0dfff" stop-opacity="1"></stop><stop offset="85.55555555555554%" stop-color="#ffffff" stop-opacity="1"></stop></linearGradient></defs><defs><linearGradient id="grad2_0" x1="0%" y1="0%" x2="56.3%" y2="100%"><stop offset="14.444444444444446%" stop-color="#6600ff" stop-opacity="1"></stop><stop offset="85.55555555555554%" stop-color="#6600ff" stop-opacity="1"></stop></linearGradient></defs><defs><linearGradient id="grad2_1" x1="0%" y1="0%" x2="56.3%" y2="100%"><stop offset="14.444444444444446%" stop-color="#883dff" stop-opacity="1"></stop><stop offset="85.55555555555554%" stop-color="#6600ff" stop-opacity="1"></stop></linearGradient></defs><defs><linearGradient id="grad2_2" x1="0%" y1="0%" x2="56.3%" y2="100%"><stop offset="14.444444444444446%" stop-color="#883dff" stop-opacity="1"></stop><stop offset="85.55555555555554%" stop-color="#a261ff" stop-opacity="1"></stop></linearGradient></defs><defs><linearGradient id="grad2_3" x1="0%" y1="0%" x2="56.3%" y2="100%"><stop offset="14.444444444444446%" stop-color="#b981ff" stop-opacity="1"></stop><stop offset="85.55555555555554%" stop-color="#a261ff" stop-opacity="1"></stop></linearGradient></defs><defs><linearGradient id="grad2_4" x1="0%" y1="0%" x2="56.3%" y2="100%"><stop offset="14.444444444444446%" stop-color="#b981ff" stop-opacity="1"></stop><stop offset="85.55555555555554%" stop-color="#cda1ff" stop-opacity="1"></stop></linearGradient></defs><defs><linearGradient id="grad2_5" x1="0%" y1="0%" x2="56.3%" y2="100%"><stop offset="14.444444444444446%" stop-color="#dfc0ff" stop-opacity="1"></stop><stop offset="85.55555555555554%" stop-color="#cda1ff" stop-opacity="1"></stop></linearGradient></defs><defs><linearGradient id="grad2_6" x1="0%" y1="0%" x2="56.3%" y2="100%"><stop offset="14.444444444444446%" stop-color="#dfc0ff" stop-opacity="1"></stop><stop offset="85.55555555555554%" stop-color="#f0dfff" stop-opacity="1"></stop></linearGradient></defs><defs><linearGradient id="grad2_7" x1="0%" y1="0%" x2="56.3%" y2="100%"><stop offset="14.444444444444446%" stop-color="#ffffff" stop-opacity="1"></stop><stop offset="85.55555555555554%" stop-color="#f0dfff" stop-opacity="1"></stop></linearGradient></defs><g transform="translate(960, 0)"><path d="M0 486C-53.2 453.4 -106.4 420.9 -166.5 401.9C-226.5 382.9 -293.5 377.5 -343.7 343.7C-393.8 309.8 -427.2 247.6 -448.1 185.6C-469 123.6 -477.5 61.8 -486 0L0 0Z" fill="#f8efff"></path><path d="M0 425.3C-46.5 396.8 -93.1 368.3 -145.7 351.7C-198.2 335 -256.8 330.3 -300.7 300.7C-344.6 271.1 -373.8 216.7 -392.1 162.4C-410.4 108.1 -417.8 54.1 -425.2 0L0 0Z" fill="#e8d0ff"></path><path d="M0 364.5C-39.9 340.1 -79.8 315.7 -124.9 301.4C-169.9 287.2 -220.1 283.1 -257.7 257.7C-295.4 232.4 -320.4 185.7 -336.1 139.2C-351.8 92.7 -358.1 46.3 -364.5 0L0 0Z" fill="#d7b0ff"></path><path d="M0 303.8C-33.2 283.4 -66.5 263 -104 251.2C-141.6 239.3 -183.4 235.9 -214.8 214.8C-246.1 193.6 -267 154.8 -280.1 116C-293.1 77.2 -298.4 38.6 -303.7 0L0 0Z" fill="#c391ff"></path><path d="M0 243C-26.6 226.7 -53.2 210.4 -83.2 200.9C-113.3 191.4 -146.8 188.7 -171.8 171.8C-196.9 154.9 -213.6 123.8 -224 92.8C-234.5 61.8 -238.8 30.9 -243 0L0 0Z" fill="#ae71ff"></path><path d="M0 182.3C-19.9 170 -39.9 157.8 -62.4 150.7C-85 143.6 -110.1 141.6 -128.9 128.9C-147.7 116.2 -160.2 92.9 -168 69.6C-175.9 46.3 -179.1 23.2 -182.2 0L0 0Z" fill="#9650ff"></path><path d="M0 121.5C-13.3 113.4 -26.6 105.2 -41.6 100.5C-56.6 95.7 -73.4 94.4 -85.9 85.9C-98.5 77.5 -106.8 61.9 -112 46.4C-117.3 30.9 -119.4 15.4 -121.5 0L0 0Z" fill="#7827ff"></path><path d="M0 60.8C-6.6 56.7 -13.3 52.6 -20.8 50.2C-28.3 47.9 -36.7 47.2 -43 43C-49.2 38.7 -53.4 31 -56 23.2C-58.6 15.4 -59.7 7.7 -60.7 0L0 0Z" fill="#6600ff"></path></g><g transform="translate(0, 540)"><path d="M0 -486C44.6 -437.6 89.3 -389.2 155 -374.2C220.7 -359.2 307.5 -377.5 343.7 -343.7C379.8 -309.8 365.4 -223.6 380.6 -157.7C395.9 -91.7 441 -45.8 486 0L0 0Z" fill="#f8efff"></path><path d="M0 -425.2C39.1 -382.9 78.1 -340.5 135.6 -327.4C193.1 -314.3 269.1 -330.3 300.7 -300.7C332.3 -271.1 319.7 -195.7 333.1 -138C346.4 -80.2 385.8 -40.1 425.3 0L0 0Z" fill="#e8d0ff"></path><path d="M0 -364.5C33.5 -328.2 67 -291.9 116.2 -280.6C165.5 -269.4 230.6 -283.1 257.7 -257.7C284.9 -232.3 274 -167.7 285.5 -118.2C296.9 -68.8 330.7 -34.4 364.5 0L0 0Z" fill="#d7b0ff"></path><path d="M0 -303.7C27.9 -273.5 55.8 -243.2 96.9 -233.9C137.9 -224.5 192.2 -236 214.8 -214.8C237.4 -193.6 228.3 -139.8 237.9 -98.5C247.5 -57.3 275.6 -28.7 303.8 0L0 0Z" fill="#c391ff"></path><path d="M0 -243C22.3 -218.8 44.6 -194.6 77.5 -187.1C110.4 -179.6 153.7 -188.8 171.8 -171.8C189.9 -154.9 182.7 -111.8 190.3 -78.8C198 -45.8 220.5 -22.9 243 0L0 0Z" fill="#ae71ff"></path><path d="M0 -182.2C16.7 -164.1 33.5 -145.9 58.1 -140.3C82.8 -134.7 115.3 -141.6 128.9 -128.9C142.4 -116.2 137 -83.9 142.7 -59.1C148.5 -34.4 165.4 -17.2 182.3 0L0 0Z" fill="#9650ff"></path><path d="M0 -121.5C11.2 -109.4 22.3 -97.3 38.7 -93.5C55.2 -89.8 76.9 -94.4 85.9 -85.9C95 -77.4 91.3 -55.9 95.2 -39.4C99 -22.9 110.2 -11.5 121.5 0L0 0Z" fill="#7827ff"></path><path d="M0 -60.7C5.6 -54.7 11.2 -48.6 19.4 -46.8C27.6 -44.9 38.4 -47.2 43 -43C47.5 -38.7 45.7 -28 47.6 -19.7C49.5 -11.5 55.1 -5.7 60.8 0L0 0Z" fill="#6600ff"></path></g></svg>