<svg id="visual" viewBox="0 0 960 540" width="960" height="540" xmlns="http://www.w3.org/2000/svg" version="1.1">
    <rect x="0" y="0" width="960" height="540" fill="#FFFFFF" fill-opacity="0"/>
    <path d="M0 383L8 385.2C16 387.3 32 391.7 48 397.7C64 403.7 80 411.3 96 419.8C112 428.3 128 437.7 144 443.5C160 449.3 176 451.7 192 448.7C208 445.7 224 437.3 240 433.8C256 430.3 272 431.7 288 436.3C304 441 320 449 336 450C352 451 368 445 384 440C400 435 416 431 432 431.2C448 431.3 464 435.7 480 433.8C496 432 512 424 528 426.3C544 428.7 560 441.3 576 440C592 438.7 608 423.3 624 412.5C640 401.7 656 395.3 672 396.3C688 397.3 704 405.7 720 411.2C736 416.7 752 419.3 768 426.5C784 433.7 800 445.3 816 441.5C832 437.7 848 418.3 864 410.2C880 402 896 405 912 404.7C928 404.3 944 400.7 952 398.8L960 397L960 541L952 541C944 541 928 541 912 541C896 541 880 541 864 541C848 541 832 541 816 541C800 541 784 541 768 541C752 541 736 541 720 541C704 541 688 541 672 541C656 541 640 541 624 541C608 541 592 541 576 541C560 541 544 541 528 541C512 541 496 541 480 541C464 541 448 541 432 541C416 541 400 541 384 541C368 541 352 541 336 541C320 541 304 541 288 541C272 541 256 541 240 541C224 541 208 541 192 541C176 541 160 541 144 541C128 541 112 541 96 541C80 541 64 541 48 541C32 541 16 541 8 541L0 541Z"
          fill="#a855f7"/>
    <path d="M0 445L8 438.3C16 431.7 32 418.3 48 419.5C64 420.7 80 436.3 96 442.7C112 449 128 446 144 449.7C160 453.3 176 463.7 192 462C208 460.3 224 446.7 240 447C256 447.3 272 461.7 288 459.5C304 457.3 320 438.7 336 438C352 437.3 368 454.7 384 458.2C400 461.7 416 451.3 432 441.5C448 431.7 464 422.3 480 421C496 419.7 512 426.3 528 435.5C544 444.7 560 456.3 576 457.7C592 459 608 450 624 448.3C640 446.7 656 452.3 672 455.3C688 458.3 704 458.7 720 456C736 453.3 752 447.7 768 444.2C784 440.7 800 439.3 816 442.5C832 445.7 848 453.3 864 455.2C880 457 896 453 912 443.5C928 434 944 419 952 411.5L960 404L960 541L952 541C944 541 928 541 912 541C896 541 880 541 864 541C848 541 832 541 816 541C800 541 784 541 768 541C752 541 736 541 720 541C704 541 688 541 672 541C656 541 640 541 624 541C608 541 592 541 576 541C560 541 544 541 528 541C512 541 496 541 480 541C464 541 448 541 432 541C416 541 400 541 384 541C368 541 352 541 336 541C320 541 304 541 288 541C272 541 256 541 240 541C224 541 208 541 192 541C176 541 160 541 144 541C128 541 112 541 96 541C80 541 64 541 48 541C32 541 16 541 8 541L0 541Z"
          fill="#9b46f9"/>
    <path d="M0 450L8 448.8C16 447.7 32 445.3 48 442.5C64 439.7 80 436.3 96 442C112 447.7 128 462.3 144 467.5C160 472.7 176 468.3 192 470.3C208 472.3 224 480.7 240 478.7C256 476.7 272 464.3 288 459.2C304 454 320 456 336 459.8C352 463.7 368 469.3 384 469.2C400 469 416 463 432 463.2C448 463.3 464 469.7 480 473.5C496 477.3 512 478.7 528 474.2C544 469.7 560 459.3 576 459.5C592 459.7 608 470.3 624 471.3C640 472.3 656 463.7 672 456.3C688 449 704 443 720 445.8C736 448.7 752 460.3 768 463.5C784 466.7 800 461.3 816 463.2C832 465 848 474 864 469.5C880 465 896 447 912 438.2C928 429.3 944 429.7 952 429.8L960 430L960 541L952 541C944 541 928 541 912 541C896 541 880 541 864 541C848 541 832 541 816 541C800 541 784 541 768 541C752 541 736 541 720 541C704 541 688 541 672 541C656 541 640 541 624 541C608 541 592 541 576 541C560 541 544 541 528 541C512 541 496 541 480 541C464 541 448 541 432 541C416 541 400 541 384 541C368 541 352 541 336 541C320 541 304 541 288 541C272 541 256 541 240 541C224 541 208 541 192 541C176 541 160 541 144 541C128 541 112 541 96 541C80 541 64 541 48 541C32 541 16 541 8 541L0 541Z"
          fill="#8c35fb"/>
    <path d="M0 489L8 491C16 493 32 497 48 498.5C64 500 80 499 96 499C112 499 128 500 144 494.8C160 489.7 176 478.3 192 474.7C208 471 224 475 240 473.8C256 472.7 272 466.3 288 465.3C304 464.3 320 468.7 336 475.5C352 482.3 368 491.7 384 493.5C400 495.3 416 489.7 432 485.7C448 481.7 464 479.3 480 476C496 472.7 512 468.3 528 466.8C544 465.3 560 466.7 576 468.8C592 471 608 474 624 479C640 484 656 491 672 493C688 495 704 492 720 486.5C736 481 752 473 768 472.2C784 471.3 800 477.7 816 482C832 486.3 848 488.7 864 487C880 485.3 896 479.7 912 481.2C928 482.7 944 491.3 952 495.7L960 500L960 541L952 541C944 541 928 541 912 541C896 541 880 541 864 541C848 541 832 541 816 541C800 541 784 541 768 541C752 541 736 541 720 541C704 541 688 541 672 541C656 541 640 541 624 541C608 541 592 541 576 541C560 541 544 541 528 541C512 541 496 541 480 541C464 541 448 541 432 541C416 541 400 541 384 541C368 541 352 541 336 541C320 541 304 541 288 541C272 541 256 541 240 541C224 541 208 541 192 541C176 541 160 541 144 541C128 541 112 541 96 541C80 541 64 541 48 541C32 541 16 541 8 541L0 541Z"
          fill="#7b21fd"/>
    <path d="M0 520L8 516.5C16 513 32 506 48 501.8C64 497.7 80 496.3 96 496C112 495.7 128 496.3 144 499.7C160 503 176 509 192 508.5C208 508 224 501 240 499.5C256 498 272 502 288 503.5C304 505 320 504 336 504.3C352 504.7 368 506.3 384 504.7C400 503 416 498 432 496.8C448 495.7 464 498.3 480 497.3C496 496.3 512 491.7 528 495C544 498.3 560 509.7 576 513.5C592 517.3 608 513.7 624 511.2C640 508.7 656 507.3 672 503.5C688 499.7 704 493.3 720 495.3C736 497.3 752 507.7 768 513C784 518.3 800 518.7 816 518.5C832 518.3 848 517.7 864 514.7C880 511.7 896 506.3 912 506.2C928 506 944 511 952 513.5L960 516L960 541L952 541C944 541 928 541 912 541C896 541 880 541 864 541C848 541 832 541 816 541C800 541 784 541 768 541C752 541 736 541 720 541C704 541 688 541 672 541C656 541 640 541 624 541C608 541 592 541 576 541C560 541 544 541 528 541C512 541 496 541 480 541C464 541 448 541 432 541C416 541 400 541 384 541C368 541 352 541 336 541C320 541 304 541 288 541C272 541 256 541 240 541C224 541 208 541 192 541C176 541 160 541 144 541C128 541 112 541 96 541C80 541 64 541 48 541C32 541 16 541 8 541L0 541Z"
          fill="#6600ff"/>
</svg>